PathFileType  4	(X/Y/Z) C:\Users\antoi\Documents\MyRepositories\mobilecap\ResultsAnalysis
DataRate	CameraRate	NumFrames	NumMarkers	Units	OrigDataRate	OrigDataStartFrame	OrigNumFrames
100.0	100.0	4	51	mm	100.0	1	237
Frame#	Time	r_knee			r_shank_antsup			r_ankle			r_calc			r_5meta			r_toe			L_knee			L_shank_antsup			L_ankle			L_calc			L_5meta			L_toe			r_sh2			r_sh3			r_sh4			L_sh2			L_sh3			r_thigh1			r_thigh2			r_thigh3			r_thigh4			r_thigh5			L_thigh1			L_thigh2			L_thigh3			L_thigh4			r.ASIS			r.PSIS			L.ASIS			L.PSIS			C7			R_Shoulder			L_Shoulder			R_Sternum			L_Sternum			R_humerus			R_elbow_med			R_elbow_lat			R_forearm			R_wrist_radius			R_wrist_ulna			L_humerus			L_elbow_med			L_elbow_lat			L_forearm			L_wrist_radius			L_wrist_ulna			R_HJC			L_HJC			R_HJC_reg			L_HJC_reg			
		X1	Y1	Z1	X2	Y2	Z2	X3	Y3	Z3	X4	Y4	Z4	X5	Y5	Z5	X6	Y6	Z6	X7	Y7	Z7	X8	Y8	Z8	X9	Y9	Z9	X10	Y10	Z10	X11	Y11	Z11	X12	Y12	Z12	X13	Y13	Z13	X14	Y14	Z14	X15	Y15	Z15	X16	Y16	Z16	X17	Y17	Z17	X18	Y18	Z18	X19	Y19	Z19	X20	Y20	Z20	X21	Y21	Z21	X22	Y22	Z22	X23	Y23	Z23	X24	Y24	Z24	X25	Y25	Z25	X26	Y26	Z26	X27	Y27	Z27	X28	Y28	Z28	X29	Y29	Z29	X30	Y30	Z30	X31	Y31	Z31	X32	Y32	Z32	X33	Y33	Z33	X34	Y34	Z34	X35	Y35	Z35	X36	Y36	Z36	X37	Y37	Z37	X38	Y38	Z38	X39	Y39	Z39	X40	Y40	Z40	X41	Y41	Z41	X42	Y42	Z42	X43	Y43	Z43	X44	Y44	Z44	X45	Y45	Z45	X46	Y46	Z46	X47	Y47	Z47	X48	Y48	Z48	X49	Y49	Z49	X50	Y50	Z50	X51	Y51	Z51	

1	0.00000000	-1142.18236	774.90950	-440.03990	-1140.23834	703.42163	-417.06377	-1185.80566	400.13698	-457.46875	-1256.21133	363.96628	-492.27348	-1083.83608	352.34612	-430.24355	-1041.94630	372.20151	-487.83437	-1155.49868	769.25914	-723.56300	-1134.99231	709.71303	-730.42415	-1179.75051	401.86037	-723.24156	-1249.08573	365.96857	-678.44631	-1087.05702	350.81954	-752.31323	-1037.59900	372.85134	-696.50364	-1150.57091	592.00860	-413.73597	-1214.67876	708.16374	-427.62617	-1231.67945	593.80173	-428.76941	-1222.46945	721.12519	-749.31945	-1222.91134	599.58229	-757.14076	-1039.18290	1078.54052	-448.07440	-1041.46807	965.84708	-439.68341	-1092.56223	945.92939	-401.30360	-1135.36135	1085.21625	-388.66525	-1145.51623	968.35238	-399.97059	-1059.47888	1053.32357	-753.27209	-1066.51045	907.29719	-738.74366	-1168.69846	1053.36192	-769.11119	-1174.14798	913.03339	-752.11938	-1044.32061	1231.77186	-456.79978	-1229.42105	1243.14295	-529.92165	-1039.64354	1217.75318	-715.43164	-1230.29700	1233.07594	-641.10505	-1201.86430	1704.73004	-593.90263	-1140.98242	1650.62937	-437.57269	-1128.60307	1653.52721	-759.56889	-1082.98821	1623.36059	-572.33536	-1081.94672	1623.17713	-616.13346	-1116.69504	1406.35156	-370.67312	-1166.39688	1303.33446	-419.13940	-1138.81222	1320.53661	-355.45369	-1071.58543	1216.44066	-351.42568	-1032.97104	1102.87034	-358.46240	-1071.32968	1090.66603	-341.48880	-1086.92850	1519.79982	-800.29143	-1133.84122	1306.30811	-749.58990	-1126.76504	1312.63441	-810.73510	-1061.54230	1224.67479	-829.44708	-1021.43680	1104.68324	-815.81481	-1054.68574	1090.66435	-827.85540	-1108.85423	1153.98632	-481.43555	-1104.09809	1145.76382	-681.50255	-1104.66307	1150.63641	-485.74003	-1106.00457	1135.21912	-656.01368	
2	0.01000000	-1142.81271	775.38089	-439.74506	-1140.11603	703.47347	-417.02124	-1185.82073	400.15459	-457.49594	-1256.18367	363.97203	-492.22506	-1083.83384	352.37165	-430.31540	-1041.95066	372.21593	-487.85107	-1155.50681	769.24585	-723.57256	-1134.98436	709.70311	-730.47840	-1179.74913	401.85676	-723.22901	-1249.13933	365.97078	-678.43535	-1087.08472	350.79176	-752.31163	-1037.57257	372.86483	-696.55954	-1150.45163	592.06367	-413.84634	-1214.47951	708.22175	-427.48590	-1231.66545	593.77757	-428.79029	-1222.47523	721.17829	-749.42880	-1222.88526	599.54691	-757.23680	-1039.11439	1078.60020	-447.98493	-1041.47982	965.83004	-439.71048	-1092.58246	945.93281	-401.33011	-1135.27023	1085.29469	-388.55893	-1145.38761	968.40854	-399.97600	-1059.49207	1053.16125	-753.35847	-1066.49277	907.32056	-738.77851	-1168.66011	1053.33208	-769.14022	-1174.09516	913.01704	-752.12331	-1044.16368	1231.77367	-456.79743	-1229.29853	1243.15144	-529.82744	-1039.59398	1217.75863	-715.44805	-1230.26958	1233.08039	-641.10966	-1200.86562	1705.23235	-594.59258	-1141.72084	1649.89575	-438.14748	-1128.44288	1653.55535	-759.55436	-1082.91776	1623.33895	-572.34918	-1081.87352	1623.10490	-616.19012	-1116.70739	1406.33485	-370.70216	-1166.28578	1303.30517	-419.25187	-1138.84732	1320.44637	-355.51974	-1071.74430	1216.31813	-351.43599	-1033.08351	1102.77281	-358.41893	-1071.47336	1090.65473	-341.61102	-1086.77109	1519.82083	-800.26356	-1134.14797	1306.52376	-750.10042	-1126.66447	1312.65415	-810.75646	-1061.44216	1224.67515	-829.41039	-1021.31969	1104.70183	-815.87959	-1054.62625	1090.70077	-827.88395	-1108.72610	1153.98944	-481.42823	-1104.04682	1145.76991	-681.49715	-1104.48737	1150.63588	-485.69169	-1105.97324	1135.22517	-655.97574	
3	0.02000000	-1143.03992	775.52521	-439.65869	-1139.99192	703.38488	-417.03099	-1185.82023	400.10501	-457.51730	-1256.18237	363.98869	-492.20901	-1083.81833	352.38975	-430.32088	-1041.93954	372.22303	-487.84489	-1155.49140	769.18241	-723.50811	-1134.99099	709.67248	-730.60911	-1179.76391	401.86922	-723.27709	-1249.13960	365.91576	-678.37857	-1087.09913	350.79136	-752.30903	-1037.62592	372.87962	-696.53247	-1150.21510	592.15923	-414.02527	-1214.48597	708.11223	-427.57648	-1231.65306	593.74265	-428.81097	-1222.48711	721.17817	-749.46637	-1222.89115	599.50392	-757.26527	-1039.02025	1078.61871	-447.91093	-1041.49476	965.80470	-439.72761	-1092.59769	945.91787	-401.31421	-1135.14053	1085.37629	-388.36562	-1145.35067	968.39070	-399.88006	-1059.49664	1053.10891	-753.38976	-1066.45152	907.30771	-738.82068	-1168.61649	1053.30705	-769.16362	-1174.05677	912.99353	-752.12462	-1044.09543	1231.72754	-456.89249	-1229.24030	1243.12377	-529.89069	-1039.54873	1217.75335	-715.48220	-1230.22273	1233.06808	-641.12222	-1200.75660	1705.13912	-594.51732	-1141.66776	1649.89062	-438.15511	-1128.27462	1653.57314	-759.54635	-1082.81337	1623.29699	-572.33034	-1081.74245	1623.07369	-616.15865	-1116.69446	1406.29203	-370.68908	-1166.20554	1303.19216	-419.36020	-1138.86469	1320.39169	-355.61283	-1071.78835	1216.22541	-351.40453	-1033.17293	1102.67264	-358.38595	-1071.58815	1090.55456	-341.68958	-1086.59153	1519.84530	-800.28359	-1134.27063	1306.57179	-750.37326	-1126.52922	1312.70057	-810.80466	-1061.33383	1224.69388	-829.46267	-1021.22913	1104.69739	-815.94483	-1054.55554	1090.72239	-827.96189	-1108.66224	1153.95130	-481.49322	-1104.00497	1145.75951	-681.56380	-1104.42394	1150.62105	-485.77959	-1105.92755	1135.23049	-656.02330	
4	0.03000000	-1142.96776	775.48879	-439.69252	-1139.88398	703.27599	-417.09225	-1185.80469	400.04684	-457.52691	-1256.22894	363.98165	-492.22963	-1083.84383	352.37644	-430.28753	-1041.94267	372.21020	-487.82647	-1155.42931	769.10641	-723.45398	-1134.97628	709.63451	-730.71196	-1179.77419	401.88632	-723.34213	-1249.11682	365.80912	-678.32134	-1087.10100	350.82092	-752.31347	-1037.68718	372.91866	-696.47146	-1149.96445	592.19917	-414.21828	-1214.55657	707.98200	-427.80443	-1231.61203	593.72931	-428.83898	-1222.44713	721.14549	-749.51387	-1222.83238	599.43135	-757.28330	-1038.83755	1078.62575	-447.75868	-1041.51110	965.76689	-439.71596	-1092.61924	945.85291	-401.26050	-1135.00122	1085.39381	-388.16429	-1145.37758	968.32298	-399.73514	-1059.47833	1053.10893	-753.40875	-1066.39120	907.28094	-738.89437	-1168.57805	1053.29130	-769.19627	-1174.02888	912.97381	-752.14169	-1044.08661	1231.68060	-457.00772	-1229.22513	1243.12473	-530.01105	-1039.51386	1217.74584	-715.52399	-1230.16824	1233.08071	-641.22080	-1201.16661	1704.68769	-593.95771	-1141.05153	1650.33806	-437.78890	-1128.09999	1653.58267	-759.53037	-1082.69609	1623.24736	-572.28240	-1081.58598	1623.05084	-616.12143	-1116.66941	1406.21751	-370.66599	-1166.14474	1303.01153	-419.47178	-1138.86890	1320.34354	-355.67780	-1071.80224	1216.16729	-351.38703	-1033.22305	1102.59472	-358.36413	-1071.65094	1090.40475	-341.69657	-1086.39167	1519.86511	-800.36368	-1134.10954	1306.60250	-750.47472	-1126.36592	1312.76925	-810.86309	-1061.20773	1224.73330	-829.60008	-1021.15483	1104.69306	-816.04984	-1054.48521	1090.72779	-828.05261	-1108.66516	1153.92241	-481.59296	-1103.97689	1145.75597	-681.66385	-1104.44810	1150.61663	-485.91409	-1105.89144	1135.24517	-656.11034	
